HIERARCHY
ROOT SpineBase
{
  OFFSET 0.000000 0.000000 0.000000
  CHANNELS 6 Xposition Yposition Zposition Zrotation Xrotation Yrotation
  JOINT SpineMid
  {
    OFFSET 0.000000 26.194731 0.000000
    CHANNELS 3 Zrotation Xrotation Yrotation
    JOINT SpineShoulder
    {
      OFFSET -0.020486 19.543655 -0.569675
      CHANNELS 3 Zrotation Xrotation Yrotation
      JOINT Neck
      {
        OFFSET -0.017656 6.494639 -0.460524
        CHANNELS 3 Zrotation Xrotation Yrotation
        JOINT Head
        {
          OFFSET 2.562494 10.804838 1.457626
          CHANNELS 3 Zrotation Xrotation Yrotation
          End Site
          {
            OFFSET 0 0 0
          }
        }
      }
      JOINT ShoulderLeft
      {
        OFFSET -11.456500 -1.901037 -7.485198
        CHANNELS 3 Zrotation Xrotation Yrotation
        JOINT ElbowLeft
        {
          OFFSET -4.078860 -21.717235 -3.735317
          CHANNELS 3 Zrotation Xrotation Yrotation
          JOINT WristLeft
          {
            OFFSET 2.175556 -17.969115 -4.837224
            CHANNELS 3 Zrotation Xrotation Yrotation
            JOINT HandLeft
            {
              OFFSET 1.754635 -6.577447 -0.793693
              CHANNELS 3 Zrotation Xrotation Yrotation
              JOINT HandTipLeft
              {
                OFFSET 0.408330 -5.272331 -0.683273
                CHANNELS 3 Zrotation Xrotation Yrotation
                End Site
                {
                  OFFSET 0 0 0
                }
              }
              JOINT ThumbLeft
              {
                OFFSET -1.377355 -0.699556 -3.562521
                CHANNELS 3 Zrotation Xrotation Yrotation
                End Site
                {
                  OFFSET 0 0 0
                }
              }
            }
          }
        }
      }
      JOINT ShoulderRight
      {
        OFFSET 11.866638 -3.110550 5.151999
        CHANNELS 3 Zrotation Xrotation Yrotation
        JOINT ElbowRight
        {
          OFFSET 1.683292 -23.537879 5.014110
          CHANNELS 3 Zrotation Xrotation Yrotation
          JOINT WristRight
          {
            OFFSET 0.966077 -18.956320 -6.720028
            CHANNELS 3 Zrotation Xrotation Yrotation
            JOINT HandRight
            {
              OFFSET -0.683407 -4.416926 -2.174676
              CHANNELS 3 Zrotation Xrotation Yrotation
              JOINT HandTipRight
              {
                OFFSET 0.641870 -5.140410 -2.208264
                CHANNELS 3 Zrotation Xrotation Yrotation
                End Site
                {
                  OFFSET 0 0 0
                }
              }
              JOINT ThumbRight
              {
                OFFSET 1.491175 1.439339 0.073894
                CHANNELS 3 Zrotation Xrotation Yrotation
                End Site
                {
                  OFFSET 0 0 0
                }
              }
            }
          }
        }
      }
    }
  }
  JOINT HipLeft
  {
    OFFSET -4.359182 1.096172 -5.138873
    CHANNELS 3 Zrotation Xrotation Yrotation
    JOINT KneeLeft
    {
      OFFSET -7.261515 -31.333067 -0.877110
      CHANNELS 3 Zrotation Xrotation Yrotation
      JOINT AnkleLeft
      {
        OFFSET -2.941272 -34.444206 7.015424
        CHANNELS 3 Zrotation Xrotation Yrotation
        JOINT FootLeft
        {
          OFFSET 4.350773 -5.845528 1.314321
          CHANNELS 3 Zrotation Xrotation Yrotation
          End Site
          {
            OFFSET 0 0 0
          }
        }
      }
    }
  }
  JOINT HipRight
  {
    OFFSET 3.981981 0.450910 -0.870788
    CHANNELS 3 Zrotation Xrotation Yrotation
    JOINT KneeRight
    {
      OFFSET -0.711418 -27.781876 0.788922
      CHANNELS 3 Zrotation Xrotation Yrotation
      JOINT AnkleRight
      {
        OFFSET -7.010213 -38.893594 6.957929
        CHANNELS 3 Zrotation Xrotation Yrotation
        JOINT FootRight
        {
          OFFSET 1.420645 -4.393713 0.558287
          CHANNELS 3 Zrotation Xrotation Yrotation
          End Site
          {
            OFFSET 0 0 0
          }
        }
      }
    }
  }
}
MOTION
Frames: 12
Frame Time: 0.033333
20.644083 71.462714 368.467549 -0.000000 0.000000 -27.098345 -0.000000 0.000000 27.098345 -0.000000 0.000000 0.000000 -0.000000 0.000000 0.000000 0.000000 0.000000 0.000000 -0.000000 0.000000 0.000000 -0.000000 0.000000 0.000000 -0.000000 0.000000 0.000000 -0.000000 0.000000 0.000000 0.000000 0.000000 0.000000 0.000000 0.000000 0.000000 -0.000000 0.000000 0.000000 -0.000000 0.000000 0.000000 -0.000000 0.000000 0.000000 -0.000000 0.000000 0.000000 0.000000 0.000000 0.000000 0.000000 0.000000 0.000000 -0.000000 0.000000 27.098345 -0.000000 0.000000 0.000000 -0.000000 0.000000 0.000000 0.000000 0.000000 0.000000 -0.000000 0.000000 27.098345 -0.000000 0.000000 0.000000 -0.000000 0.000000 0.000000 0.000000 0.000000 0.000000
20.734985 71.414072 368.445926 0.144174 0.019213 -27.052505 -0.119661 -0.082682 27.052394 -0.000000 0.000000 0.000000 -0.000000 0.000000 0.000000 0.000000 0.000000 0.000000 -0.445372 -2.295436 0.500215 -3.333526 2.257448 0.651150 -0.568063 -1.819119 -1.070632 5.205153 2.181193 -0.210321 0.000000 0.000000 0.000000 0.000000 0.000000 0.000000 -1.459001 0.084789 -0.303998 1.979851 -3.413093 -0.029847 0.960357 -7.442412 1.447604 -4.286888 2.654969 -0.305756 0.000000 0.000000 0.000000 0.000000 0.000000 0.000000 -0.119661 -0.082682 27.052394 -0.000000 0.000000 0.000000 0.515052 11.909319 9.122625 0.000000 0.000000 0.000000 -0.598314 -1.081977 27.039738 0.880669 0.672403 0.002623 10.708388 25.399022 7.272108 0.000000 0.000000 0.000000
20.740341 71.386915 368.405339 0.167054 0.077447 -27.056185 -0.113545 -0.144958 27.055929 -0.000000 0.000000 0.000000 -0.000000 0.000000 0.000000 0.000000 0.000000 0.000000 -0.773166 -3.578379 0.784339 -4.462187 3.818033 0.958542 -0.881683 -2.651956 -1.525181 8.689401 3.496063 -0.593626 0.000000 0.000000 0.000000 0.000000 0.000000 0.000000 -2.199196 0.428942 -0.430560 3.452455 -5.602162 -0.191366 1.405479 -10.654098 2.243129 -7.140930 2.553572 0.167636 0.000000 0.000000 0.000000 0.000000 0.000000 0.000000 -0.113545 -0.144958 27.055929 1.152252 -0.331977 0.266450 -1.907740 22.871790 17.448200 0.000000 0.000000 0.000000 -0.873404 -1.872870 27.031584 1.593718 2.033466 -0.136093 15.288298 42.492444 10.930765 0.000000 0.000000 0.000000
20.660150 71.381243 368.345787 0.069147 0.174648 -27.109512 0.018036 -0.186970 27.109436 -0.000000 0.000000 0.000000 -0.000000 0.000000 0.000000 0.000000 0.000000 0.000000 -1.010291 -3.920232 0.879471 -3.823444 4.746842 0.835775 -1.114095 -2.825443 -1.409638 11.142044 4.227876 -1.053813 0.000000 0.000000 0.000000 0.000000 0.000000 0.000000 -2.318114 1.019440 -0.401688 4.511408 -6.569852 -0.471465 1.332959 -11.519705 2.528270 -8.817043 1.198252 0.728255 0.000000 0.000000 0.000000 0.000000 0.000000 0.000000 0.975386 -0.801387 27.329838 0.949354 0.611632 0.112594 -4.601054 30.421639 24.306659 0.000000 0.000000 0.000000 -0.850078 -2.419365 27.079641 2.035949 2.699888 -0.180139 15.651578 52.959471 13.457410 0.000000 0.000000 0.000000
20.494414 71.397057 368.267271 -0.149453 0.310894 -27.211677 0.275078 -0.208142 27.212582 -0.000000 0.000000 0.000000 -0.000000 0.000000 0.000000 0.000000 0.000000 0.000000 -1.168201 -3.339385 0.796707 -1.474844 5.082497 0.267945 -1.264566 -2.354855 -0.734151 12.862345 4.457943 -1.565001 0.000000 0.000000 0.000000 0.000000 0.000000 0.000000 -1.851097 1.871412 -0.231352 5.207955 -6.315640 -0.888741 0.797210 -10.849795 2.346785 -9.529100 -0.871301 1.226518 0.000000 0.000000 0.000000 0.000000 0.000000 0.000000 1.840351 -0.990657 27.527946 0.715847 1.092148 0.058004 -6.987842 34.488857 28.682162 0.000000 0.000000 0.000000 -0.542071 -2.749747 27.186186 2.282012 3.146398 -0.200426 12.441652 59.397312 16.747394 0.000000 0.000000 0.000000
20.243132 71.434356 368.169790 -0.489042 0.486375 -27.360936 0.657871 -0.207185 27.364201 -0.000000 0.000000 0.000000 -0.000000 0.000000 0.000000 0.000000 0.000000 0.000000 -1.244684 -1.800416 0.533058 2.826203 4.830370 -0.703579 -1.173513 -0.973931 0.524585 13.872856 4.092842 -2.105858 0.000000 0.000000 0.000000 0.000000 0.000000 0.000000 -0.781080 3.026583 0.071174 5.556349 -4.831164 -1.490436 -0.147282 -8.747570 1.636106 -9.367224 -3.637564 1.725779 0.000000 0.000000 0.000000 0.000000 0.000000 0.000000 2.968371 -1.136125 27.784717 0.211132 1.712404 -0.037536 -8.232323 35.435831 30.079969 0.000000 0.000000 0.000000 0.045480 -2.878184 27.350957 2.341909 3.378797 -0.193807 5.559799 63.431423 21.770690 0.000000 0.000000 0.000000
19.819275 71.423879 367.954217 -1.118166 0.835950 -27.505361 1.377838 -0.224922 27.516223 -0.000000 0.000000 0.000000 -0.000000 0.000000 0.000000 0.000000 0.000000 0.000000 -1.765890 0.481507 0.219943 11.105004 4.442646 -2.395647 -1.799626 4.688090 3.120937 15.964011 0.741432 -2.657695 0.000000 0.000000 0.000000 0.000000 0.000000 0.000000 0.678867 3.930123 0.405282 6.418179 0.589248 -2.494166 -2.909481 -1.514189 -0.323619 -5.716975 -12.395229 1.906066 0.000000 0.000000 0.000000 0.000000 0.000000 0.000000 4.943888 -1.421085 28.125778 -0.909500 2.887523 -0.252371 -7.637228 32.759266 27.674345 0.000000 0.000000 0.000000 1.022706 -3.043826 27.519986 2.453771 3.483601 -0.147591 0.030397 63.045600 24.418098 0.000000 0.000000 0.000000
19.338566 71.453201 367.786120 -1.815401 1.132129 -27.821463 1.232123 -0.130226 27.817563 0.786657 -0.441441 0.025495 -0.000000 0.000000 0.000000 0.000000 0.000000 0.000000 -2.320008 3.922310 -0.255939 22.404135 3.204067 -3.929019 0.926160 14.071520 4.849035 14.258719 -3.888376 -2.362578 0.000000 0.000000 0.000000 0.000000 0.000000 0.000000 3.326008 6.294484 0.985858 7.098812 -0.433117 -4.069668 -3.386412 2.955634 -1.864433 -5.795678 -10.039336 4.070776 0.000000 0.000000 0.000000 0.000000 0.000000 0.000000 6.870013 -1.497632 28.605294 -2.109223 3.999364 -0.443274 -6.916398 25.840589 21.416059 0.000000 0.000000 0.000000 2.402426 -2.750153 27.883349 1.965312 3.350668 -0.096247 -16.593641 67.736760 37.460888 0.000000 0.000000 0.000000
18.859247 71.549505 367.699401 -2.493619 1.322153 -28.122593 1.452224 -0.134001 28.112984 1.276337 -0.518387 0.042430 -0.000000 0.000000 0.000000 0.000000 0.000000 0.000000 -1.546871 9.363656 -1.347354 34.582386 2.019889 -3.814239 7.753478 17.973106 4.130360 8.125704 -3.668652 -3.265331 0.000000 0.000000 0.000000 0.000000 0.000000 0.000000 7.189840 10.065775 1.644650 5.739182 0.244014 -5.715747 -5.662644 7.926929 -3.378223 -4.456293 -9.540964 5.887145 0.000000 0.000000 0.000000 0.000000 0.000000 0.000000 8.551095 -1.334723 29.003807 -3.435535 5.017461 -0.614098 -6.218762 15.209152 12.339082 0.000000 0.000000 0.000000 3.569015 -1.547187 28.203133 1.356369 2.100580 0.075220 -28.360343 60.976634 39.114708 0.000000 0.000000 0.000000
18.432547 71.900816 367.715736 -2.992281 1.422073 -28.748433 1.509210 -0.164836 28.730045 0.886779 -0.230621 -0.007333 1.909857 -0.532370 -0.020241 0.000000 0.000000 0.000000 1.549279 16.165417 -3.193685 49.160972 0.454468 -1.593899 17.094379 16.290256 3.532768 -2.985047 6.347655 -9.631243 0.000000 0.000000 0.000000 0.000000 0.000000 0.000000 12.886697 14.357382 2.249427 3.250699 5.440215 -7.978931 -3.932506 9.218391 -6.795957 -3.481536 -13.609618 8.393353 0.000000 0.000000 0.000000 0.000000 0.000000 0.000000 9.741211 -0.939378 29.637647 -4.817549 5.794117 -0.750287 -6.091544 2.157136 1.704614 0.000000 0.000000 0.000000 4.911776 -0.729805 28.855315 0.616515 1.718332 0.157881 -50.890203 51.943867 44.125937 0.000000 0.000000 0.000000
18.120269 72.415961 367.826038 -3.244070 1.425345 -29.211557 1.405658 -0.190702 29.183286 0.939063 -0.228743 -0.018887 2.861863 -0.604202 -0.065993 0.000000 0.000000 0.000000 6.540843 24.386664 -6.510597 62.291232 0.483753 3.156994 20.187591 11.023349 6.899504 2.026462 2.119213 -6.917362 0.000000 0.000000 0.000000 0.000000 0.000000 0.000000 18.212703 18.459232 2.424256 -1.780899 19.569348 -10.363793 6.175788 2.490346 -10.078956 -4.107691 -10.117306 11.662107 0.000000 0.000000 0.000000 0.000000 0.000000 0.000000 10.277052 -0.440051 30.025338 -5.105406 5.670113 -0.685156 -6.498332 0.164323 -0.066135 0.000000 0.000000 0.000000 5.655941 -0.006239 29.317573 0.172627 1.280888 0.239475 -60.840455 50.822747 49.193552 0.000000 0.000000 0.000000
17.969158 73.026422 368.029785 -3.196332 1.305846 -29.530626 1.175552 -0.165648 29.494149 0.893698 -0.203480 -0.028306 3.633321 -0.834492 -0.073411 0.000000 0.000000 0.000000 13.944318 32.229605 -11.602791 71.203974 2.040424 9.288829 19.925143 12.207524 7.529686 6.553420 -6.704525 2.668026 0.000000 0.000000 0.000000 0.000000 0.000000 0.000000 23.970701 24.482040 1.961411 -4.741307 33.194778 -14.157331 4.813273 -0.284437 -11.157328 4.084320 -5.153365 15.341497 0.000000 0.000000 0.000000 0.000000 0.000000 0.000000 10.179078 0.026198 30.232314 -5.140314 5.405166 -0.604970 -5.296685 4.679466 3.973830 0.000000 0.000000 0.000000 5.896738 0.086498 29.637777 -0.224907 1.762157 0.152121 -54.310642 48.062100 41.723055 0.000000 0.000000 0.000000
